<?xml version="1.0" encoding="utf-8"?>
<!-- Generator: Adobe Illustrator 20.1.0, SVG Export Plug-In . SVG Version: 6.00 Build 0)  -->
<svg version="1.1" id="Layer_1" xmlns="http://www.w3.org/2000/svg" xmlns:xlink="http://www.w3.org/1999/xlink" x="0px" y="0px"
	 viewBox="0 0 100 100" style="enable-background:new 0 0 100 100;" xml:space="preserve">
<g>
	<path class="st0" d="M5.3,100c-2.3,0-4.2-1.9-4.2-4.2V58.2C1.1,55.9,3,54,5.3,54s4.2,1.9,4.2,4.2v37.7C9.5,98.1,7.6,100,5.3,100"/>
	<path class="st0" d="M23.2,100c-2.3,0-4.2-1.9-4.2-4.2V21.7c0-2.3,1.9-4.2,4.2-4.2s4.2,1.9,4.2,4.2v74.1
		C27.3,98.1,25.5,100,23.2,100"/>
	<path class="st0" d="M41.1,100c-2.3,0-4.2-1.9-4.2-4.2V4.2c0-2.3,1.9-4.2,4.2-4.2s4.2,1.9,4.2,4.2v91.7
		C45.2,98.1,43.4,100,41.1,100"/>
	<path class="st0" d="M58.9,100c-2.3,0-4.2-1.9-4.2-4.2V36.3c0-2.3,1.9-4.2,4.2-4.2c2.3,0,4.2,1.9,4.2,4.2v59.5
		C63.1,98.1,61.2,100,58.9,100"/>
	<path class="st0" d="M94.7,100c-2.3,0-4.2-1.9-4.2-4.2V75.2c0-2.3,1.9-4.2,4.2-4.2c2.3,0,4.2,1.9,4.2,4.2v20.7
		C98.9,98.1,97,100,94.7,100"/>
	<path class="st0" d="M76.8,100c-2.3,0-4.2-1.9-4.2-4.2V4.2c0-2.3,1.9-4.2,4.2-4.2C79.1,0,81,1.9,81,4.2v91.7
		C81,98.1,79.1,100,76.8,100"/>
</g>
</svg>
