<?xml version="1.0" encoding="utf-8"?>
<!-- Generator: Adobe Illustrator 20.1.0, SVG Export Plug-In . SVG Version: 6.00 Build 0)  -->
<svg version="1.1" id="Layer_1" xmlns="http://www.w3.org/2000/svg" xmlns:xlink="http://www.w3.org/1999/xlink" x="0px" y="0px"
	 viewBox="0 0 100 100" style="enable-background:new 0 0 100 100;" xml:space="preserve">
<g>
	<path class="st0" d="M95.8,100H4.2C1.9,100,0,98.1,0,95.8V4.2C0,1.9,1.9,0,4.2,0c2.3,0,4.2,1.9,4.2,4.2v87.4h87.4
		c2.3,0,4.2,1.9,4.2,4.2C100,98.1,98.1,100,95.8,100"/>
	<path class="st0" d="M23.2,77h7.7V63.1h-7.7V77z M34.8,84.8H19.3c-2.1,0-3.9-1.7-3.9-3.9V59.2c0-2.1,1.7-3.9,3.9-3.9h15.5
		c2.1,0,3.9,1.7,3.9,3.9v21.7C38.7,83,36.9,84.8,34.8,84.8"/>
	<path class="st0" d="M83,77h7.7v-69H83V77z M94.6,84.8H79.1c-2.1,0-3.9-1.7-3.9-3.9V4.2c0-2.1,1.7-3.9,3.9-3.9h15.5
		c2.1,0,3.9,1.7,3.9,3.9v76.7C98.5,83,96.7,84.8,94.6,84.8"/>
	<path class="st0" d="M53.1,77h7.7V36.2h-7.7V77z M64.7,84.8H49.2c-2.1,0-3.9-1.7-3.9-3.9V32.3c0-2.1,1.7-3.9,3.9-3.9h15.5
		c2.1,0,3.9,1.7,3.9,3.9v48.6C68.6,83,66.8,84.8,64.7,84.8"/>
</g>
</svg>
