<?xml version="1.0" encoding="utf-8"?>
<!-- Generator: Adobe Illustrator 20.1.0, SVG Export Plug-In . SVG Version: 6.00 Build 0)  -->
<svg version="1.1" id="Layer_1" xmlns="http://www.w3.org/2000/svg" xmlns:xlink="http://www.w3.org/1999/xlink" x="0px" y="0px"
	 viewBox="0 0 100 100" style="enable-background:new 0 0 100 100;" xml:space="preserve">
<path class="st0" d="M98,52.4V40.5c0-0.5-0.2-0.9-0.5-1.3c-0.4-1-1.1-1.8-2.1-2.2L50.5,17.5c-1-0.4-2.2-0.4-3.2,0L2.4,37.1
	C0.9,37.7,0,39.1,0,40.7c0,1.6,0.9,3,2.4,3.7l9.6,4.2v20c0,1.3,0.7,2.6,1.8,3.3c10.8,7.3,23,10.9,35.1,10.9
	c12.1,0,24.3-3.6,35.1-10.9c1.1-0.7,1.8-2,1.8-3.3v-20L94,45v7.4c-1.2,0.7-2,2-2,3.5v14c0,2.2,1.8,4,4,4s4-1.8,4-4v-14
	C100,54.4,99.2,53.1,98,52.4z M48.9,25.5l34.9,15.2L48.9,55.9L14,40.7L48.9,25.5z M77.8,66.4c-18,11.2-39.8,11.2-57.8,0V52.1
	L47.3,64c0.5,0.2,1.1,0.3,1.6,0.3c0.5,0,1.1-0.1,1.6-0.3l27.3-11.9V66.4z"/>
</svg>
