<?xml version="1.0" encoding="utf-8"?>
<!-- Generator: Adobe Illustrator 20.1.0, SVG Export Plug-In . SVG Version: 6.00 Build 0)  -->
<svg version="1.1" id="Layer_1" xmlns="http://www.w3.org/2000/svg" xmlns:xlink="http://www.w3.org/1999/xlink" x="0px" y="0px"
	 viewBox="0 0 100 100" style="enable-background:new 0 0 100 100;" xml:space="preserve">
<g>
	<path class="st0" d="M15.3,42.9h4.3c0-13.3,10.8-24.1,24.1-24.1v-4.3C28.1,14.5,15.3,27.2,15.3,42.9z"/>
	<path class="st0" d="M97.9,92.7L76.2,70.9c6.5-7.5,10.5-17.3,10.5-28C86.6,19.2,67.4,0,43.7,0C20.1,0,0.8,19.3,0.8,42.9
		c0,23.7,19.3,42.9,42.9,42.9c9.9,0,18.9-3.4,26.2-9l21.9,21.9c0.8,0.8,1.9,1.3,3,1.3c1.1,0,2.2-0.4,3-1.3
		C99.6,97.1,99.6,94.3,97.9,92.7z M9.4,42.9C9.4,24,24.8,8.6,43.7,8.6C62.6,8.6,78,24,78,42.9c0,18.9-15.4,34.3-34.3,34.3
		C24.8,77.2,9.4,61.8,9.4,42.9z"/>
</g>
</svg>
