<?xml version="1.0" encoding="utf-8"?>
<!-- Generator: Adobe Illustrator 20.1.0, SVG Export Plug-In . SVG Version: 6.00 Build 0)  -->
<svg version="1.1" id="Layer_1" xmlns="http://www.w3.org/2000/svg" xmlns:xlink="http://www.w3.org/1999/xlink" x="0px" y="0px"
	 viewBox="0 0 100 100" style="enable-background:new 0 0 100 100;" xml:space="preserve">
<g>
	<path class="st0" d="M41.5,8.7h53.4c2.4,0,4.3-1.9,4.3-4.3S97.3,0,94.9,0H41.5c-2.4,0-4.3,1.9-4.3,4.3S39.1,8.7,41.5,8.7z"/>
	<path class="st0" d="M94.9,22.8H41.5c-2.4,0-4.3,1.9-4.3,4.3s1.9,4.3,4.3,4.3h53.4c2.4,0,4.3-1.9,4.3-4.3S97.3,22.8,94.9,22.8z"/>
	<path class="st0" d="M94.9,45.7H5.1c-2.4,0-4.3,1.9-4.3,4.3s1.9,4.3,4.3,4.3h89.9c2.4,0,4.3-1.9,4.3-4.3S97.3,45.7,94.9,45.7z"/>
	<path class="st0" d="M94.9,68.5H5.1c-2.4,0-4.3,1.9-4.3,4.3c0,2.4,1.9,4.3,4.3,4.3h89.9c2.4,0,4.3-1.9,4.3-4.3
		C99.3,70.4,97.3,68.5,94.9,68.5z"/>
	<path class="st0" d="M94.9,91.3H5.1c-2.4,0-4.3,1.9-4.3,4.3c0,2.4,1.9,4.3,4.3,4.3h89.9c2.4,0,4.3-1.9,4.3-4.3
		C99.3,93.2,97.3,91.3,94.9,91.3z"/>
	<path class="st0" d="M3.4,36.9c2.2,0.9,4.8-0.2,5.7-2.4l1.2-3H23l1.2,3c0.7,1.7,2.3,2.7,4,2.7c0.6,0,1.1-0.1,1.6-0.3
		c2.2-0.9,3.3-3.4,2.4-5.7L20.7,2.7C20,1.1,18.4,0,16.7,0c-1.8,0-3.4,1.1-4,2.7L1,31.2C0.1,33.4,1.2,35.9,3.4,36.9z M19.5,22.8h-5.6
		l2.8-6.9L19.5,22.8z"/>
</g>
</svg>
