<?xml version="1.0" encoding="utf-8"?>
<!-- Generator: Adobe Illustrator 20.1.0, SVG Export Plug-In . SVG Version: 6.00 Build 0)  -->
<svg version="1.1" id="Layer_1" xmlns="http://www.w3.org/2000/svg" xmlns:xlink="http://www.w3.org/1999/xlink" x="0px" y="0px"
	 viewBox="0 0 100 100" style="enable-background:new 0 0 100 100;" xml:space="preserve">
<g>
	<path class="st0" d="M24.7,36.7l22.8,16.6c0,0,0,0,0,0c0.3,0.2,0.7,0.4,1.1,0.5c0.1,0,0.2,0.1,0.2,0.1c0.4,0.1,0.8,0.2,1.2,0.2
		c0.4,0,0.8-0.1,1.2-0.2c0.1,0,0.1,0,0.2-0.1c0.4-0.1,0.7-0.3,1.1-0.5c0,0,0,0,0,0l22.8-16.6c1.9-1.4,2.3-4,0.9-5.9
		c-1.4-1.9-4-2.3-5.9-0.9l-16,11.7V4.2C54.2,1.9,52.3,0,50,0c-2.3,0-4.2,1.9-4.2,4.2v37.3l-16-11.7c-1.9-1.4-4.6-1-5.9,0.9
		C22.4,32.7,22.9,35.3,24.7,36.7z"/>
	<path class="st0" d="M98.8,65.7L98.8,65.7C98.8,65.7,98.8,65.7,98.8,65.7c0-0.3,0-0.6-0.1-0.8c0-0.1,0-0.1-0.1-0.2
		c0-0.2-0.1-0.4-0.2-0.6c0-0.1-0.1-0.2-0.1-0.3c-0.1-0.2-0.2-0.3-0.3-0.5c-0.1-0.1-0.2-0.2-0.3-0.3c-0.1-0.1-0.1-0.2-0.2-0.3
		L80.4,45.1c-1.6-1.7-4.3-1.7-6-0.1c-1.7,1.6-1.7,4.3-0.1,6l10.2,10.5H67c-2.3,0-4.2,1.9-4.2,4.2v6H37.3v-6c0-2.3-1.9-4.2-4.2-4.2
		H15.5L25.7,51c1.6-1.7,1.6-4.4-0.1-6c-1.7-1.6-4.4-1.6-6,0.1L2.5,62.7c0,0,0,0,0,0l0,0c0,0,0,0.1-0.1,0.1c-0.2,0.2-0.3,0.4-0.5,0.6
		c0,0.1-0.1,0.1-0.1,0.2c-0.1,0.2-0.2,0.4-0.3,0.5c0,0.1,0,0.2-0.1,0.2c-0.1,0.2-0.1,0.4-0.2,0.5c0,0.1,0,0.2,0,0.3
		c0,0.2,0,0.3,0,0.5v30c0,2.3,1.9,4.2,4.2,4.2h89.1c2.3,0,4.2-1.9,4.2-4.2V65.8C98.8,65.8,98.8,65.8,98.8,65.7z M90.3,91.5H9.7V70
		h19.1v1.8c0,4.7,3.8,8.5,8.5,8.5h25.4c4.7,0,8.5-3.8,8.5-8.5V70h19.1V91.5z"/>
</g>
</svg>
