<?xml version="1.0" encoding="utf-8"?>
<!-- Generator: Adobe Illustrator 21.0.2, SVG Export Plug-In . SVG Version: 6.00 Build 0)  -->
<svg version="1.1" id="Layer_1" xmlns="http://www.w3.org/2000/svg" xmlns:xlink="http://www.w3.org/1999/xlink" x="0px" y="0px"
	 viewBox="0 0 100 100" style="enable-background:new 0 0 100 100;" xml:space="preserve">
<g>
	<g>
		<path d="M50,100C22.4,100,0,77.6,0,50C0,22.4,22.4,0,50,0s50,22.4,50,50C100,77.6,77.6,100,50,100z M50,6.2
			C25.9,6.2,6.2,25.9,6.2,50S25.9,93.8,50,93.8S93.8,74.1,93.8,50S74.1,6.2,50,6.2z"/>
	</g>
	<path d="M63.2,54.1l1.3-10.3H54.3v-6.6c0-3,0.8-5,5.1-5l5.4,0v-9.2c-0.9-0.1-4.2-0.4-7.9-0.4c-7.8,0-13.2,4.8-13.2,13.6v7.6h-8.9
		v10.3h8.9v26.4h10.6V54.1H63.2z"/>
</g>
</svg>
