<?xml version="1.0" encoding="utf-8"?>
<!-- Generator: Adobe Illustrator 20.1.0, SVG Export Plug-In . SVG Version: 6.00 Build 0)  -->
<svg version="1.1" id="Layer_1" xmlns="http://www.w3.org/2000/svg" xmlns:xlink="http://www.w3.org/1999/xlink" x="0px" y="0px"
	 viewBox="0 0 100 100" style="enable-background:new 0 0 100 100;" xml:space="preserve">
<g>
	<path class="st0" d="M26.2,36.3c-1.2,0-2.2,1-2.2,2.2c0,1.2,1,2.2,2.2,2.2h46.6c1.2,0,2.2-1,2.2-2.2c0-1.2-1-2.2-2.2-2.2H26.2z"/>
	<path class="st0" d="M26.2,49.5h36.6c1.2,0,2.2-1,2.2-2.2c0-1.2-1-2.2-2.2-2.2H26.2c-1.2,0-2.2,1-2.2,2.2
		C24,48.5,25,49.5,26.2,49.5z"/>
	<path class="st0" d="M46.4,65.9H26.2c-1.2,0-2.2,1-2.2,2.2c0,1.2,1,2.2,2.2,2.2h20.1c1.2,0,2.2-1,2.2-2.2
		C48.6,66.9,47.6,65.9,46.4,65.9z"/>
	<path class="st0" d="M46.4,74.4H26.2c-1.2,0-2.2,1-2.2,2.2c0,1.2,1,2.2,2.2,2.2h20.1c1.2,0,2.2-1,2.2-2.2
		C48.6,75.4,47.6,74.4,46.4,74.4z"/>
	<path class="st0" d="M74.1,62.7l0-1c0-0.9-0.6-1.7-1.5-2l-0.9-0.3c-0.8-0.8-1.7-1.4-2.7-1.9l-0.6-0.8c-0.6-0.7-1.5-1-2.4-0.8
		l-1,0.3c-0.5-0.1-1.1-0.2-1.6-0.2c-0.6,0-1.1,0.1-1.6,0.2l-1-0.3c-0.9-0.2-1.8,0.1-2.4,0.8l-0.6,0.8c-1,0.5-1.9,1.1-2.7,1.9
		l-0.9,0.3c-0.9,0.3-1.4,1.1-1.5,2l0,1c-0.5,1-0.8,2-1,3.1l-0.6,0.8c-0.5,0.8-0.5,1.7,0,2.5l0.6,0.8c0.2,1.1,0.5,2.1,1,3.1l0,1
		c0,0.9,0.6,1.7,1.5,2l0.9,0.3c0.7,0.6,1.4,1.2,2.2,1.7l-3.1,4.1c-0.7,1-0.5,2.4,0.4,3.1c0.4,0.3,0.9,0.4,1.3,0.4
		c0.7,0,1.3-0.3,1.8-0.9l3.7-4.9c0.1-0.1,0.1-0.2,0.1-0.3l0.2-0.1c0.5,0.1,1.1,0.2,1.6,0.2c0.5,0,1.1-0.1,1.6-0.2l0.2,0.1
		c0,0.1,0.1,0.2,0.1,0.3l3.7,4.9c0.4,0.6,1.1,0.9,1.8,0.9c0.5,0,0.9-0.1,1.3-0.4c1-0.7,1.2-2.1,0.4-3.1l-3.1-4.1
		c0.8-0.5,1.6-1,2.2-1.7l0.9-0.3c0.9-0.3,1.4-1.1,1.5-2l0-1c0.5-1,0.8-2,1-3.1l0.5-0.8c0.5-0.7,0.5-1.7,0-2.5l-0.5-0.8
		C74.9,64.7,74.5,63.7,74.1,62.7z M70.1,69.4c-0.2,0.3-0.4,0.7-0.4,1.2l0,1.3c-0.2,0.2-0.3,0.5-0.5,0.7L67.9,73
		c-0.4,0.1-0.7,0.4-1,0.7l-0.8,1.1c-0.3,0.1-0.5,0.2-0.8,0.3L64,74.7c-0.4-0.1-0.8-0.1-1.2,0l-1.3,0.4c-0.3-0.1-0.6-0.2-0.8-0.3
		l-0.8-1.1c-0.3-0.3-0.6-0.6-1-0.7l-1.2-0.4c-0.2-0.2-0.4-0.5-0.5-0.7l0-1.3c0-0.4-0.1-0.8-0.4-1.2l-0.7-1.1c0-0.2,0-0.3,0-0.5
		c0-0.2,0-0.3,0-0.5l0.7-1.1c0.2-0.3,0.4-0.8,0.4-1.2l0-1.3c0.2-0.3,0.4-0.5,0.5-0.7l1.2-0.4c0.4-0.1,0.7-0.4,1-0.7l0.8-1.1
		c0.3-0.1,0.5-0.2,0.8-0.3l1.3,0.4c0.4,0.1,0.8,0.1,1.2,0l1.3-0.4c0.3,0.1,0.6,0.2,0.8,0.3l0.8,1.1c0.3,0.3,0.6,0.6,1,0.7l1.2,0.4
		c0.2,0.2,0.4,0.4,0.5,0.7l0,1.3c0,0.4,0.1,0.8,0.4,1.2l0.7,1.1c0,0.2,0,0.3,0,0.4c0,0.2,0,0.3,0,0.5L70.1,69.4z"/>
	<path class="st0" d="M86.2,0H40.4c-1.2,0-2.3,0.5-3.1,1.3L10.6,27.9c-0.8,0.8-1.3,2-1.3,3.1v64.5c0,2.5,2,4.4,4.4,4.4h72.5
		c2.5,0,4.4-2,4.4-4.4V4.4C90.7,2,88.7,0,86.2,0z M38.2,12.9v15.9H22.2L38.2,12.9z M81.8,91.1H18.2V33.3h22.2c1.2,0,2.2-1,2.2-2.2
		V8.9h39.2V91.1z"/>
</g>
</svg>
