<?xml version="1.0" encoding="utf-8"?>
<!-- Generator: Adobe Illustrator 21.0.2, SVG Export Plug-In . SVG Version: 6.00 Build 0)  -->
<svg version="1.1" id="Layer_1" xmlns="http://www.w3.org/2000/svg" xmlns:xlink="http://www.w3.org/1999/xlink" x="0px" y="0px"
	 viewBox="0 0 673.5 100" style="enable-background:new 0 0 673.5 100;" xml:space="preserve">
<g>
	<path d="M664.6,100h8.9l-32-51.7L671.3,0h-8.9l-26,42.1L610.5,0h-8.9l29.9,48.3l-32,51.7h8.9l28.1-45.6L664.6,100z M528.2,53.1
		h47.4v-7.6h-47.4V7.7h47.4V0h-55.3v100h55.3v-7.7h-47.4V53.1z M433.1,7.7h23.7c13,0,23.7,8.4,23.7,26.1v32.3
		c0,17.7-10.7,26.1-23.7,26.1h-23.7V7.7z M488.3,33.9c0-21-13.4-33.9-31.6-33.9h-31.6v100h31.6c18.1,0,31.6-12.9,31.6-33.9V33.9z
		 M390.2,0h-7.9v84.4L334.9,0h-7.9v100h7.9V15.6l47.4,84.4h7.9V0z M292.1,0h-7.9v100h7.9V0z M223.4,49.5c0,5.5,4.5,10,10,10
		s10-4.5,10-10s-4.5-10-10-10S223.4,44,223.4,49.5"/>
	<path d="M9.7,11.8H1.9V6.4c0-2.2,1.4-4,3.9-4c2.5,0,3.9,1.9,3.9,4V11.8z M11.3,7.6L21,1.9V0l-9.7,5.7C11,2.7,8.8,0.7,5.8,0.7
		c-3.2,0-5.5,2.2-5.5,5.7v7H21v-1.6h-9.7V7.6z M11.3,30v-9.8H9.7V30H1.9v-9.8H0.3v11.4H21V20.2h-1.6V30H11.3z M9.7,40.5v9.8H0.3v1.6
		H21v-1.6h-9.7v-9.8H21v-1.6H0.3v1.6H9.7z M11.9,64.9V60h2.4c3.7,0,5.4,2.2,5.4,4.9s-1.7,4.9-5.4,4.9H7c-3.7,0-5.4-2.2-5.4-4.9
		c0-2.5,1.5-4.6,4.6-4.9v-1.6c-3.9,0.3-6.2,3-6.2,6.5c0,3.8,2.7,6.5,7,6.5h7.3c4.3,0,7-2.8,7-6.5c0-3.8-2.7-6.5-7-6.5h-4v6.5H11.9z
		 M0.3,79.7H21v-1.6H0.3V79.7z M9.7,88.6v9.8H0.3v1.6H21v-1.6h-9.7v-9.8H21v-1.6H0.3v1.6H9.7z"/>
	<path d="M136.4,7.7h23.7c13,0,23.7,8.4,23.7,26.1v32.3c0,17.7-10.7,26.1-23.7,26.1h-23.7V7.7z M191.7,33.9
		c0-21-13.4-33.9-31.6-33.9h-31.6v100h31.6c18.1,0,31.6-12.9,31.6-33.9V33.9z M48.4,53.1h47.4v-7.6H48.4V7.7h47.4V0H40.5v100h55.3
		v-7.7H48.4V53.1z"/>
</g>
</svg>
