<?xml version="1.0" encoding="utf-8"?>
<!-- Generator: Adobe Illustrator 20.1.0, SVG Export Plug-In . SVG Version: 6.00 Build 0)  -->
<svg version="1.1" id="Layer_1" xmlns="http://www.w3.org/2000/svg" xmlns:xlink="http://www.w3.org/1999/xlink" x="0px" y="0px"
	 viewBox="0 0 100 100" style="enable-background:new 0 0 100 100;" xml:space="preserve">
<g>
	<path class="st0" d="M58.4,89.7c-13.5,3-27.4-1-37.2-10.8C13.6,71.2,9.4,61.1,9.4,50.4c0-9.8,3.5-19,9.9-26.4l0.5,9.9
		c0.1,2.3,2,4.1,4.3,4.1c0.1,0,0.2,0,0.2,0c2.4-0.1,4.2-2.1,4.1-4.5l-1-18.8c-0.1-2.2-1.9-3.9-4-4l-18.8-1c-2.4-0.2-4.4,1.7-4.5,4
		c-0.1,2.4,1.7,4.4,4,4.5l8.5,0.5C5,27.5,0.8,38.6,0.8,50.4c0,13,5.1,25.3,14.3,34.5c9.3,9.3,21.6,14.3,34.4,14.3
		c3.6,0,7.2-0.4,10.7-1.2c2.3-0.5,3.8-2.8,3.2-5.1C63,90.6,60.7,89.2,58.4,89.7z"/>
	<path class="st0" d="M95.9,82.1l-9.1-0.5c16.7-19.2,15.9-48.3-2.3-66.5C72.7,3.2,55.8-1.7,39.4,2c-2.3,0.5-3.8,2.8-3.3,5.1
		c0.5,2.3,2.8,3.8,5.1,3.3c13.6-3,27.5,1,37.3,10.8c14.9,14.9,15.6,38.7,2.2,54.5l-0.5-9.3c-0.1-2.4-2.2-4.2-4.5-4.1
		c-2.4,0.1-4.2,2.1-4,4.5l1,18.8c0.1,2.2,1.9,3.9,4.1,4.1l18.8,1c0.1,0,0.2,0,0.2,0c2.3,0,4.2-1.8,4.3-4.1
		C100.1,84.2,98.3,82.2,95.9,82.1z"/>
	<path class="st0" d="M62.9,49.5c-1.3-1.2-2.7-2-4.3-2.6c-1.6-0.6-3.7-1.3-6.4-2V31.2c2.7,0.9,4.5,2.7,5.2,5.4
		c0.6,2.3,2,3.5,4.1,3.5c1.1,0,2.1-0.4,2.9-1.2c0.8-0.8,1.2-1.7,1.2-2.8c0-1-0.3-2.1-0.8-3.2c-0.5-1.2-1.3-2.3-2.3-3.4
		c-1.2-1.4-2.7-2.5-4.4-3.3c-1.7-0.7-3.7-1.2-6-1.4v-3.5c0-1.8-0.7-2.7-2.1-2.7c-1.4,0-2.1,0.9-2.1,2.7v3.5
		c-4.5,0.4-7.9,1.8-10.3,4.2c-2.4,2.4-3.6,5.5-3.6,9.2c0,2.9,0.6,5.2,1.8,7c1.2,1.8,2.8,3.2,4.8,4.2c2,1,4.4,1.9,7.3,2.7v15.2
		c-1.5-0.4-2.6-1-3.5-1.8c-0.9-0.8-1.5-1.6-2-2.6c-0.4-0.9-0.9-2.3-1.5-4.1c-0.3-0.8-0.7-1.5-1.4-1.9c-0.7-0.5-1.5-0.7-2.5-0.7
		c-1.2,0-2.2,0.4-3,1.3c-0.8,0.8-1.2,1.8-1.2,2.8c0,1.4,0.3,2.9,0.9,4.3c0.6,1.5,1.5,2.9,2.8,4.2c1.3,1.4,2.9,2.5,4.8,3.4
		c1.9,0.9,4.1,1.5,6.7,1.8v8.8c0,1,0.2,1.7,0.5,2.2c0.3,0.5,0.9,0.7,1.6,0.7c0.8,0,1.4-0.3,1.6-0.9c0.3-0.6,0.4-1.5,0.4-2.8v-8.1
		c3.1-0.3,5.8-1.1,8.1-2.4c2.3-1.4,4-3.1,5.1-5.3c1.2-2.2,1.7-4.5,1.7-7c0-2-0.4-3.8-1.1-5.5C65.3,52.1,64.3,50.7,62.9,49.5z
		 M48,43.6c-2-0.7-3.4-1.5-4.4-2.4c-1-0.9-1.4-2.2-1.4-3.9c0-1.8,0.5-3.2,1.5-4c1-0.9,2.5-1.6,4.3-2.2V43.6z M57.3,64.9
		c-1.2,1.3-2.9,2.2-5.1,2.6V53.3c2.3,0.7,4,1.6,5.1,2.6c1.2,1,1.7,2.5,1.7,4.4C59.1,62.1,58.5,63.6,57.3,64.9z"/>
</g>
</svg>
