<?xml version="1.0" encoding="utf-8"?>
<!-- Generator: Adobe Illustrator 20.1.0, SVG Export Plug-In . SVG Version: 6.00 Build 0)  -->
<svg version="1.1" id="Layer_1" xmlns="http://www.w3.org/2000/svg" xmlns:xlink="http://www.w3.org/1999/xlink" x="0px" y="0px"
	 viewBox="0 0 100 100" style="enable-background:new 0 0 100 100;" xml:space="preserve">
<g>
	<path class="st0" d="M84.3,88.1L73.1,59.5c0.4-0.2,0.9-0.5,1.2-0.8c1.7-1.7,1.4-4.2,1.1-6.1c0-0.3-0.1-0.8-0.1-1.2
		c0.4-0.1,0.9-0.3,1.2-0.3c1.9-0.5,4.3-1.1,5.2-3.4c0.9-2.3-0.3-4.4-1.3-6.1c-0.1-0.2-0.4-0.7-0.6-1.1c0.2-0.2,0.5-0.4,1-0.8
		c1.6-1.2,3.5-2.7,3.5-5.2c0-2.5-2-4-3.5-5.2c-0.5-0.3-0.8-0.6-1-0.8c0.2-0.4,0.5-0.9,0.6-1.1c1-1.7,2.2-3.8,1.3-6.1
		c-1-2.3-3.3-2.9-5.3-3.4c-0.3-0.1-0.8-0.2-1.2-0.3c0-0.4,0.1-1,0.1-1.3c0.3-1.9,0.6-4.4-1.1-6.1c-1.7-1.7-4.2-1.4-6.1-1.1
		c-0.2,0-0.8,0.1-1.3,0.1c-0.1-0.4-0.3-0.9-0.3-1.2c-0.5-1.9-1.1-4.3-3.4-5.2c-2.3-0.9-4.4,0.3-6.1,1.3C56.8,4,56.3,4.3,56,4.5
		c-0.3-0.3-0.6-0.7-0.8-1C54,2,52.5,0,50,0c-2.5,0-4,2-5.2,3.5c-0.3,0.4-0.6,0.7-0.8,1c-0.4-0.2-0.9-0.5-1.1-0.6
		c-1.7-1-3.8-2.2-6-1.3c-2.3,0.9-2.9,3.3-3.4,5.2c-0.1,0.3-0.2,0.8-0.3,1.2c-0.4,0-1-0.1-1.3-0.1c-1.9-0.3-4.4-0.6-6.1,1.1
		c-1.7,1.7-1.4,4.2-1.1,6.1c0,0.2,0.1,0.8,0.1,1.3c-0.4,0.1-0.9,0.3-1.2,0.3c-1.9,0.5-4.3,1.1-5.2,3.4c-0.9,2.3,0.3,4.4,1.3,6.1
		c0.1,0.2,0.4,0.7,0.6,1.1c-0.3,0.3-0.8,0.6-1,0.8c-1.6,1.2-3.5,2.7-3.5,5.2c0,2.5,2,4,3.5,5.2c0.4,0.3,0.7,0.6,1,0.8
		c-0.2,0.4-0.5,0.9-0.6,1.1c-1,1.7-2.2,3.8-1.3,6.1c0.9,2.3,3.3,2.9,5.3,3.4c0.3,0.1,0.8,0.2,1.2,0.3c0,0.4-0.1,1-0.1,1.3
		c-0.3,1.9-0.6,4.4,1.1,6.1c0.4,0.4,0.8,0.6,1.2,0.8L15.7,88.1c-0.4,1-0.2,2.2,0.5,3c0.7,0.8,1.8,1.2,2.8,1l11-2.2l6.1,8.9
		c0.6,0.8,1.5,1.3,2.4,1.3c0.1,0,0.2,0,0.3,0c1.1-0.1,2-0.8,2.4-1.9L50,75.9l8.8,22.3c0.4,1,1.3,1.7,2.4,1.9c0.1,0,0.2,0,0.3,0
		c1,0,1.9-0.5,2.4-1.3l6.1-8.9L81,92c1.1,0.2,2.2-0.2,2.8-1C84.5,90.2,84.7,89.1,84.3,88.1z M24.6,44.4c0.9-1.5,1.9-3.3,1.5-5.3
		c-0.4-2-2-3.2-3.4-4.3c-0.2-0.1-0.4-0.3-0.6-0.5c0.2-0.2,0.5-0.4,0.6-0.5c1.4-1.1,3-2.3,3.4-4.3c0.4-2-0.7-3.8-1.5-5.3
		c-0.1-0.2-0.2-0.4-0.3-0.6c0.3-0.1,0.5-0.1,0.7-0.2c1.7-0.4,3.7-1,4.8-2.6c1.1-1.7,0.8-3.8,0.6-5.5c0-0.2-0.1-0.4-0.1-0.7
		c0.3,0,0.5,0.1,0.7,0.1c1.7,0.2,3.8,0.5,5.5-0.6c1.7-1.1,2.2-3.1,2.6-4.8c0-0.2,0.1-0.4,0.2-0.7c0.2,0.1,0.4,0.2,0.6,0.3
		c1.5,0.9,3.3,1.9,5.3,1.5c2-0.4,3.2-2,4.3-3.4c0.1-0.2,0.3-0.4,0.5-0.6c0.2,0.2,0.4,0.5,0.5,0.6c1.1,1.4,2.3,3,4.3,3.4
		c2,0.4,3.8-0.7,5.3-1.5c0.1-0.1,0.4-0.2,0.6-0.3c0.1,0.3,0.1,0.5,0.2,0.7c0.5,1.7,1,3.7,2.6,4.8c1.7,1.1,3.8,0.8,5.5,0.6
		c0.2,0,0.4-0.1,0.7-0.1c0,0.3-0.1,0.5-0.1,0.7c-0.2,1.7-0.5,3.8,0.6,5.5c1.1,1.7,3.1,2.2,4.8,2.6c0.2,0,0.4,0.1,0.7,0.2
		c-0.1,0.2-0.3,0.4-0.3,0.6c-0.9,1.5-1.9,3.3-1.5,5.3c0.4,2,2,3.2,3.4,4.3c0.2,0.1,0.4,0.3,0.6,0.5c-0.2,0.2-0.5,0.4-0.6,0.5
		c-1.4,1.1-3,2.3-3.4,4.3c-0.4,2,0.7,3.8,1.5,5.3c0.1,0.1,0.2,0.4,0.3,0.6c-0.3,0.1-0.5,0.1-0.7,0.2c-1.7,0.5-3.7,1-4.8,2.6
		c-1.1,1.7-0.8,3.8-0.6,5.5c0,0.2,0.1,0.4,0.1,0.7c-0.2,0-0.3,0-0.4-0.1c0,0,0,0,0,0l-0.3,0c-0.6-0.1-1.3-0.2-2-0.2
		c-1.2,0-2.4,0.1-3.5,0.8c-0.4,0.3-0.7,0.6-1,0.9c0,0,0,0-0.1,0.1c-0.2,0.3-0.4,0.7-0.6,1c0,0.1-0.1,0.1-0.1,0.2
		c-0.1,0.3-0.2,0.6-0.3,0.9c0,0.1-0.1,0.3-0.2,0.4c0,0,0,0,0,0c-0.1,0.4-0.2,0.9-0.4,1.3c0,0.1,0,0.2-0.1,0.2c0,0.1,0,0.1-0.1,0.2
		c0,0.1,0,0.2-0.1,0.2c0,0-0.1,0-0.1,0c-0.1-0.1-0.3-0.2-0.4-0.2c0,0-0.1,0-0.1-0.1c-1.5-0.9-3.3-1.9-5.3-1.5c-2,0.4-3.2,2-4.3,3.4
		c-0.1,0.1-0.1,0.2-0.2,0.2c0,0,0,0-0.1,0.1c0,0.1-0.1,0.1-0.1,0.2c0,0-0.1,0.1-0.1,0.1c-0.1-0.1-0.1-0.1-0.2-0.2
		c-0.1-0.1-0.2-0.3-0.3-0.4c0,0,0-0.1-0.1-0.1c-0.6-0.8-1.3-1.6-2.1-2.3c-0.4-0.3-0.9-0.6-1.4-0.8c-0.2-0.1-0.5-0.2-0.7-0.2
		c-0.3-0.1-0.6-0.1-0.8-0.1c0,0,0,0-0.1,0c0,0-0.1,0-0.1,0c-0.4,0-0.7,0.1-1.1,0.1c0,0,0,0,0,0c-0.4,0.1-0.7,0.2-1.1,0.4
		c0,0-0.1,0-0.1,0.1c-0.3,0.1-0.7,0.3-1,0.5c-0.1,0-0.1,0.1-0.2,0.1c-0.3,0.2-0.6,0.3-0.9,0.5c0,0,0,0,0,0c-0.1,0.1-0.3,0.2-0.5,0.3
		c-0.1-0.3-0.1-0.5-0.2-0.7c-0.5-1.7-1-3.7-2.6-4.8c-0.1-0.1-0.3-0.2-0.4-0.2c-1.4-0.7-3-0.6-4.4-0.5c0,0,0,0,0,0c0,0-0.1,0-0.1,0
		c-0.2,0-0.4,0-0.6,0.1l-0.3,0c0,0,0,0,0,0c-0.1,0-0.3,0-0.4,0.1c0-0.3,0.1-0.5,0.1-0.7c0.2-1.7,0.5-3.8-0.6-5.5
		c-1.1-1.7-3.1-2.2-4.8-2.6c-0.2,0-0.4-0.1-0.7-0.2C24.4,44.8,24.5,44.6,24.6,44.4z M33.2,59.8c0,0.1,0.1,0.2,0.1,0.3
		c0,0.1,0,0.1,0.1,0.2c0.1,0.2,0.1,0.4,0.1,0.5c0.2,0.6,0.3,1.3,0.6,1.9c0,0.1,0.1,0.2,0.1,0.3c0.4,0.9,0.8,1.7,1.6,2.3
		c0.3,0.3,0.7,0.5,1.1,0.7c0.2,0.1,0.4,0.1,0.6,0.2c2,0.5,3.9-0.6,5.5-1.5c0.2-0.1,0.4-0.2,0.6-0.3c0.2-0.1,0.4-0.2,0.6-0.3
		c0.1,0.1,0.2,0.2,0.3,0.3c0.1,0.1,0.1,0.2,0.2,0.2c0,0.1,0.1,0.1,0.1,0.1c0.1,0.1,0.2,0.2,0.2,0.3c0,0,0,0,0,0
		c0.2,0.3,0.4,0.6,0.7,0.9c0.1,0.1,0.1,0.2,0.2,0.2c0.2,0.3,0.5,0.5,0.7,0.8c0,0,0.1,0.1,0.1,0.1l0.2,0.6l-9.1,23l-4-5.9
		c-0.5-0.8-1.5-1.3-2.4-1.3c-0.2,0-0.4,0-0.6,0.1l-7.5,1.5L33.2,59.8z M53.1,67.5c0.4-0.3,0.8-0.7,1.1-1.1c0,0,0,0,0,0
		c0.3-0.4,0.6-0.8,0.9-1.2c0,0,0,0,0,0c0-0.1,0.1-0.2,0.2-0.2c0.1-0.1,0.1-0.1,0.2-0.2c0,0,0,0,0,0c0.1-0.2,0.3-0.3,0.4-0.5
		c0.2,0.1,0.5,0.2,0.7,0.4c0.2,0.1,0.4,0.2,0.5,0.3c0.4,0.2,0.8,0.5,1.2,0.7c1.3,0.7,2.7,1.2,4.2,0.8c0.2-0.1,0.4-0.1,0.6-0.2
		c0.4-0.2,0.7-0.4,1-0.6c1.5-1.1,2-3,2.4-4.6c0,0,0,0,0,0c0.1-0.2,0.2-0.6,0.3-0.9c0,0,0,0,0-0.1l10,25.4l-7.5-1.5
		c-1.2-0.2-2.4,0.2-3,1.2l-4,5.9L53.1,67.5C53.1,67.5,53.1,67.5,53.1,67.5z"/>
	<path class="st0" d="M50,55.3c11.5,0,20.9-9.4,20.9-20.9c0-11.5-9.4-20.9-20.9-20.9s-20.9,9.4-20.9,20.9
		C29.1,45.9,38.5,55.3,50,55.3z M35,34.3c0-8.3,6.7-15,15-15c8.3,0,15,6.7,15,15c0,8.3-6.7,15-15,15C41.7,49.4,35,42.6,35,34.3z"/>
</g>
</svg>
