<?xml version="1.0" encoding="utf-8"?>
<!-- Generator: Adobe Illustrator 21.0.2, SVG Export Plug-In . SVG Version: 6.00 Build 0)  -->
<svg version="1.1" id="Layer_1" xmlns="http://www.w3.org/2000/svg" xmlns:xlink="http://www.w3.org/1999/xlink" x="0px" y="0px"
	 viewBox="0 0 577.4 114" style="enable-background:new 0 0 577.4 114;" xml:space="preserve">
<g>
	<path d="M577.4,0h-306v114h306V0z M388.1,28.7l8.6,23.2h-5.9l-1.9-5.5h-7.3l-1.9,5.5h-5.5l8.1-23.2H388.1z M333.1,28.7h5.6v13.9
		c0,2.6,1.2,4.4,4,4.4c2.6,0,3.9-1.8,3.9-4.5V28.7h5.6v13.9c0,5.6-3.2,9.7-9.6,9.7c-6.5,0-9.5-3.9-9.5-9.7V28.7z M313.5,28.7h5.3
		c7.7,0,12.4,4.3,12.4,11.5c0,7.2-4.7,11.6-12.4,11.6h-5.3V28.7z M300.1,28.7h11v5.2h-5.4v3.6h5.2v5.2h-5.2v4h5.5v5.2h-11.1V28.7z
		 M308.1,76.1h-2.4v9.2h-5.6V62.2h8c4.9,0,7.3,2.5,7.3,6.9C315.4,73.4,312.6,76.1,308.1,76.1z M328.5,85.8c-7.6,0-12.2-5.2-12.2-12
		c0-6.7,4.9-12,12-12c7.6,0,12.3,5.2,12.3,12C340.6,80.5,335.9,85.8,328.5,85.8z M353.5,85.4h-10.9V62.2h5.6v17.9h5.3V85.4z
		 M366.3,28.3c3.5,0,6,1.1,7.8,2.7l-3.3,4.2c-0.8-0.8-2.4-1.7-4.5-1.7c-4.1,0-6.4,3-6.4,6.8c0,3.8,2.6,6.8,6.5,6.8
		c1.9,0,3.4-0.9,4.4-1.7l3.3,4c-2,1.9-4.5,3-7.7,3c-7.7,0-12.3-5.2-12.3-12C354.1,33.6,358.9,28.3,366.3,28.3z M361,85.4h-5.6V62.2
		h5.6V85.4z M375.4,80.6c1.9,0,3.4-0.9,4.4-1.7l3.3,4c-2,1.9-4.5,3-7.7,3c-7.7,0-12.3-5.2-12.3-12c0-6.7,4.8-12,12.2-12
		c3.5,0,6,1.1,7.8,2.7l-3.3,4.2c-0.8-0.8-2.4-1.7-4.5-1.7c-4.1,0-6.4,3-6.4,6.8C368.9,77.6,371.5,80.6,375.4,80.6z M395.1,73.9v11.5
		h-5.6V74l-6.4-11.8h6.2l3.2,6.3l3.2-6.3h5.9L395.1,73.9z M408.1,33.9h-3.8v17.9h-5.6V33.9h-3.9v-5.2h13.3V33.9z M415.6,51.9H410
		V28.7h5.6V51.9z M429.7,52.3c-7.6,0-12.2-5.2-12.2-12c0-6.7,4.9-12,12-12c7.6,0,12.3,5.2,12.3,12C441.9,47,437.2,52.3,429.7,52.3z
		 M463.7,51.9h-5.5l-8.9-13.7v13.7h-5.4V28.7h5.8l8.7,14v-14h5.4V51.9z"/>
	<path d="M328.4,67c-4.1,0-6.3,3-6.3,6.8c0,3.8,2.4,6.8,6.3,6.8c4.1,0,6.3-3,6.3-6.8C334.7,70,332.4,67,328.4,67z"/>
	<path d="M325.4,40.3c0-4.5-2.4-6.7-6.2-6.6V47C322.8,47,325.4,44.8,325.4,40.3z"/>
	<path d="M307.6,67h-1.9v4.3h1.9c1.3,0,2-0.9,2-2.2C309.6,67.9,308.9,67,307.6,67z"/>
	<polygon points="385.1,35.8 383.1,41.7 387.2,41.7 	"/>
	<path d="M429.7,33.5c-4.1,0-6.3,3-6.3,6.8c0,3.8,2.4,6.8,6.3,6.8c4.1,0,6.3-3,6.3-6.8C436,36.5,433.7,33.5,429.7,33.5z"/>
	<polygon points="99.8,38.4 108.7,52.2 114.3,52.2 114.3,28.9 108.9,28.9 108.9,43 100.1,28.9 94.3,28.9 94.3,52.2 99.8,52.2 	"/>
	<polygon points="128.1,47 122.6,47 122.6,43 127.9,43 127.9,37.8 122.6,37.8 122.6,34.2 128,34.2 128,28.9 117,28.9 117,52.2 
		128.1,52.2 	"/>
	<polygon points="156.6,52.2 162.9,28.9 157.1,28.9 153.3,44.8 149.2,28.9 143.2,28.9 139.1,44.8 135.3,28.9 129.1,28.9 135.6,52.2 
		142,52.2 146,37.6 150,52.2 	"/>
	<path d="M100.8,62.3l-8.1,23.3h5.5l1.9-5.6h7.3l2,5.6h6l-8.6-23.3H100.8z M101.7,75.3l2.1-5.9l2.1,5.9H101.7z"/>
	<polygon points="130,78.1 124.9,62.3 116.5,62.3 116.5,85.6 121.6,85.6 121.6,69.2 127.1,85.6 132.5,85.6 138,69.2 138,85.6 
		143.4,85.6 143.4,62.3 135.2,62.3 	"/>
	<polygon points="151.7,76.3 157,76.3 157,71.1 151.7,71.1 151.7,67.5 157.1,67.5 157.1,62.3 146.1,62.3 146.1,85.6 157.2,85.6 
		157.2,80.3 151.7,80.3 	"/>
	<path d="M174.9,69.2c0-4.4-2.5-6.9-7.3-6.9h-8v23.3h5.6V76h1.5l4.6,9.6h6L172,74.9C173.8,73.8,174.9,71.8,174.9,69.2z M167.1,71.5
		h-2v-4.3h2c1.2,0,2,0.8,2,2.1C169.1,70.6,168.4,71.5,167.1,71.5z"/>
	<rect x="178.3" y="62.3" width="5.6" height="23.3"/>
	<path d="M198.3,80.8c-3.9,0-6.5-3-6.5-6.8c0-3.8,2.3-6.8,6.5-6.8c2.1,0,3.6,1,4.5,1.8l3.3-4.2c-1.8-1.6-4.3-2.8-7.9-2.8
		c-7.4,0-12.3,5.4-12.3,12.1c0,6.8,4.6,12,12.4,12c3.3,0,5.8-1.1,7.7-3l-3.3-4C201.7,79.9,200.2,80.8,198.3,80.8z"/>
	<path d="M214.2,62.3L206,85.6h5.5l1.9-5.6h7.3l2,5.6h6l-8.6-23.3H214.2z M215.1,75.3l2.1-5.9l2.1,5.9H215.1z"/>
	<rect x="0" y="74.7" width="78.8" height="10.8"/>
	<rect x="0" y="51.8" width="78.8" height="11.4"/>
	<rect x="19.3" y="29" width="59.6" height="11.4"/>
	<circle cx="6.3" cy="34.9" r="6.3"/>
</g>
</svg>
