<?xml version="1.0" encoding="utf-8"?>
<!-- Generator: Adobe Illustrator 20.1.0, SVG Export Plug-In . SVG Version: 6.00 Build 0)  -->
<svg version="1.1" id="Layer_1" xmlns="http://www.w3.org/2000/svg" xmlns:xlink="http://www.w3.org/1999/xlink" x="0px" y="0px"
	 viewBox="0 0 100 100" style="enable-background:new 0 0 100 100;" xml:space="preserve">
<g>
	<path class="st0" d="M50,8.2c-18.8,0-34,15.3-34,34C16,56.8,38.5,80,50,90.4C61.5,80,84,56.8,84,42.3C84,23.5,68.8,8.2,50,8.2
		 M50,100c-1,0-1.9-0.3-2.7-1C43.3,95.6,7.7,64.6,7.7,42.3C7.7,19,26.7,0,50,0s42.3,19,42.3,42.3c0,22.3-35.5,53.3-39.6,56.7
		C51.9,99.7,51,100,50,100"/>
	<path class="st0" d="M50,29.9c-6.8,0-12.4,5.5-12.4,12.4S43.2,54.6,50,54.6c6.8,0,12.4-5.6,12.4-12.4S56.8,29.9,50,29.9 M50,62.9
		c-11.4,0-20.6-9.2-20.6-20.6S38.6,21.7,50,21.7c11.4,0,20.6,9.3,20.6,20.6S61.4,62.9,50,62.9"/>
</g>
</svg>
