<?xml version="1.0" encoding="utf-8"?>
<!-- Generator: Adobe Illustrator 20.1.0, SVG Export Plug-In . SVG Version: 6.00 Build 0)  -->
<svg version="1.1" id="Layer_1" xmlns="http://www.w3.org/2000/svg" xmlns:xlink="http://www.w3.org/1999/xlink" x="0px" y="0px"
	 viewBox="0 0 100 100" style="enable-background:new 0 0 100 100;" xml:space="preserve">
<g>
	<path class="st0" d="M95.8,91.6H8.4V4.2C8.4,1.9,6.5,0,4.2,0C1.9,0,0,1.9,0,4.2v91.6c0,2.3,1.9,4.2,4.2,4.2h91.6
		c2.3,0,4.2-1.9,4.2-4.2C100,93.5,98.1,91.6,95.8,91.6z"/>
	<path class="st0" d="M29.3,82.3c7.7,0,14-6.3,14-14c0-3.9-1.6-7.4-4.2-9.9L49,40.8c0.9,0.2,1.8,0.3,2.7,0.3c2.4,0,4.6-0.6,6.6-1.7
		l12.9,11.9c-1.3,2.1-2,4.6-2,7.2c0,7.7,6.3,14,14,14c7.7,0,14-6.3,14-14c0-7.7-6.3-14-14-14c-2,0-3.9,0.4-5.6,1.2L64.1,33.4
		c1-1.9,1.5-4.1,1.5-6.3c0-7.7-6.3-14-14-14c-7.7,0-14,6.3-14,14c0,3.8,1.5,7.2,3.9,9.7l-10,17.8c-0.8-0.1-1.5-0.2-2.4-0.2
		c-7.7,0-14,6.3-14,14C15.3,76,21.6,82.3,29.3,82.3z M88.7,58.5c0,3.1-2.5,5.6-5.6,5.6c-3.1,0-5.6-2.5-5.6-5.6s2.5-5.6,5.6-5.6
		C86.2,52.9,88.7,55.4,88.7,58.5z M51.6,21.5c3.1,0,5.6,2.5,5.6,5.6s-2.5,5.6-5.6,5.6c-3.1,0-5.6-2.5-5.6-5.6S48.6,21.5,51.6,21.5z
		 M29.3,62.7c3.1,0,5.6,2.5,5.6,5.6s-2.5,5.6-5.6,5.6c-3.1,0-5.6-2.5-5.6-5.6S26.2,62.7,29.3,62.7z"/>
</g>
</svg>
