<?xml version="1.0" encoding="utf-8"?>
<!-- Generator: Adobe Illustrator 21.0.2, SVG Export Plug-In . SVG Version: 6.00 Build 0)  -->
<svg version="1.1" id="Layer_1" xmlns="http://www.w3.org/2000/svg" xmlns:xlink="http://www.w3.org/1999/xlink" x="0px" y="0px"
	 viewBox="0 0 100 100" style="enable-background:new 0 0 100 100;" xml:space="preserve">
<g>
	<path d="M77.8,35.3c-1.9,0.9-4,1.4-6.2,1.7c2.2-1.3,3.9-3.4,4.7-6c-2.1,1.2-4.4,2.1-6.8,2.6c-2-2.1-4.8-3.4-7.9-3.4
		c-6,0-10.8,4.8-10.8,10.8c0,0.8,0.1,1.7,0.3,2.5C42.2,43,34.3,38.8,29,32.2c-0.9,1.6-1.5,3.4-1.5,5.4c0,3.7,1.9,7,4.8,9
		c-1.8-0.1-3.4-0.5-4.9-1.3v0.1c0,5.2,3.7,9.6,8.6,10.6c-0.9,0.2-1.9,0.4-2.8,0.4c-0.7,0-1.4-0.1-2-0.2c1.4,4.3,5.3,7.4,10.1,7.5
		c-3.7,2.9-8.3,4.6-13.4,4.6c-0.9,0-1.7-0.1-2.6-0.2c4.8,3.1,10.4,4.8,16.5,4.8c19.8,0,30.6-16.4,30.6-30.6c0-0.5,0-0.9,0-1.4
		C74.6,39.4,76.4,37.5,77.8,35.3"/>
	<g>
		<path d="M50,100C22.4,100,0,77.6,0,50C0,22.4,22.4,0,50,0s50,22.4,50,50C100,77.6,77.6,100,50,100z M50,6.2
			C25.9,6.2,6.2,25.9,6.2,50S25.9,93.8,50,93.8S93.8,74.1,93.8,50S74.1,6.2,50,6.2z"/>
	</g>
</g>
</svg>
